<svg width="192" height="65" viewBox="0 0 192 65" fill="none" xmlns="http://www.w3.org/2000/svg">
<path d="M119.978 0L118.248 16.416L109.623 10.7321L115.848 17.9532L94.7714 19.1287L115.748 20.3462L106.305 27.1826L118.212 21.8261L120.014 32.8339L122.185 20.6947L165.477 19.1287L124.016 17.9016L131.8 10.6651L121.899 16.3279L119.978 0Z" fill="#ED1A3B"/>
<path d="M15.2206 52.173L23.2361 35.9752H30.403V36.3792H29.8258C26.9093 36.3792 26.9762 37.9279 26.9762 38.5731V54.9756C26.9762 55.6265 26.9093 57.1638 29.8258 57.1638H30.403V57.5696H19.7711V57.1638H20.3464C23.2685 57.1638 23.2055 55.6265 23.2055 54.9756V39.3656L14.1962 57.5696H13.8942L4.96141 39.312V54.9776C4.96141 55.6284 4.88687 57.1657 7.81479 57.1657H8.39006V57.5716H0V57.1657H0.579086C3.50127 57.1657 3.43056 55.6284 3.43056 54.9776V38.575C3.43056 37.9279 3.50127 36.3811 0.579086 36.3811H0V35.9771H7.1669L15.2206 52.173Z" fill="#ED1A3B"/>
<path d="M44.34 35.9752V36.3772H43.7628C40.8406 36.3772 40.9094 37.926 40.9094 38.5731V54.9756C40.9094 55.6265 40.8387 57.1638 43.7628 57.1638H44.34V57.5696H33.7062V57.1638H34.2853C37.2017 57.1638 37.1367 55.6265 37.1367 54.9756V38.575C37.1367 37.926 37.2017 36.3792 34.2853 36.3792H33.7062V35.9771H44.34V35.9752Z" fill="#ED1A3B"/>
<path d="M61.3984 56.1187C64.7258 56.1187 66.3235 55.1615 67.6097 52.0736L68.0244 52.1751L66.291 57.5718H47.6399V57.1678H48.217C51.143 57.1678 51.0742 55.6287 51.0742 54.9778V38.5752C51.0742 37.9281 51.143 36.3794 48.217 36.3794H47.6399V35.9773H58.2736V36.3794H57.6965C54.7743 36.3794 54.8392 37.93 54.8392 38.5752V56.1187H61.3984Z" fill="#ED1A3B"/>
<path d="M67.5884 57.5717H74.3845V57.1658C73.3258 57.1371 71.9344 56.804 71.9344 55.7779C71.9344 55.3778 72.137 55.0102 72.3434 54.6082L74.2794 50.5095H83.2486L85.2209 54.6369C85.3528 54.9432 85.4579 55.441 85.4579 55.8085C85.4579 56.3962 85.1827 56.827 83.0747 57.1639V57.5698H92.5923V57.1639C90.4805 56.9189 90.1059 56.3024 89.0853 54.2387L80.0225 35.6997H79.711L70.673 54.2387C69.8895 55.8085 69.1518 56.9514 67.5884 57.1639V57.5717ZM78.765 41.1251L82.6313 49.177H74.9197L78.765 41.1251Z" fill="#ED1A3B"/>
<path d="M93.2763 21.4474L93.217 22.1826C93.217 22.1826 86.1017 22.2859 88.3607 27.696C89.5552 30.5657 102.458 58.4853 102.458 58.4853L115.339 24.7038L116.132 28.8217L102.217 65H101.292C101.292 65 85.1901 31.8656 83.4127 28.2474C81.578 24.7785 81.0046 22.3223 75.3552 22.2476V21.4474H93.2763Z" fill="#ED1A3B"/>
<path d="M125.462 35.9752V36.3772H124.881C121.965 36.3772 122.037 37.926 122.037 38.5731V54.9756C122.037 55.6265 121.965 57.1638 124.881 57.1638H125.462V57.5696H114.832V57.1638H115.411C118.336 57.1638 118.272 55.6265 118.272 54.9756V38.575C118.272 37.926 118.336 36.3792 115.411 36.3792H114.832V35.9771H125.462V35.9752Z" fill="#ED1A3B"/>
<path d="M147.741 35.9752L148.051 40.8512H147.573C147.512 39.7696 147.028 37.4302 143.29 37.4302H139.525V54.9776C139.525 55.6284 139.454 57.1657 142.373 57.1657H142.952V57.5716H132.318V57.1657H132.897C135.819 57.1657 135.76 55.6284 135.76 54.9776V37.4302H131.978C128.242 37.4302 127.766 39.7696 127.703 40.8512H127.225L127.533 35.9752H147.741Z" fill="#ED1A3B"/>
<path d="M163.926 42.6415H163.488C163.286 38.9084 159.951 36.9366 157.399 36.9366C155.564 36.9366 153.563 38.0469 153.563 39.8962C153.563 42.4558 157.135 43.9375 159.849 45.3848C162.567 46.8359 165.457 48.6278 165.457 52.0163C165.457 54.9453 162.81 57.8475 157.843 57.8475C155.096 57.8475 154.926 57.0148 152.644 56.8042C152.48 56.7678 152.277 56.7678 152.107 56.8042C151.427 56.8884 151.052 57.3575 150.949 57.8475H150.511V50.5652H150.985C151.564 53.7431 153.873 56.519 157.575 56.519C160.126 56.519 161.959 55.2535 161.959 53.2836C161.959 50.5116 159.064 48.9666 156.455 47.6361C152.684 45.7256 150.475 44.06 150.475 41.1597C150.475 38.1063 153.258 35.7018 157.168 35.7018C160.264 35.7018 161.382 36.7183 162.397 36.7183C162.838 36.7183 163.387 36.3182 163.551 35.7018H163.922V42.6415H163.926Z" fill="#ED1A3B"/>
<path d="M166.112 57.5717H172.908V57.1658C171.853 57.1371 170.46 56.804 170.46 55.7779C170.46 55.3778 170.668 55.0102 170.871 54.6082L172.808 50.5095H181.774L183.748 54.6369C183.88 54.9432 183.981 55.441 183.981 55.8085C183.981 56.3962 183.708 56.827 181.609 57.1639V57.5698H191.119V57.1639C189.011 56.9189 188.641 56.3024 187.622 54.2387L178.553 35.6997H178.248L169.214 54.2387C168.43 55.8085 167.673 56.9514 166.114 57.1639V57.5717H166.112ZM177.292 41.1251L181.162 49.177H173.454L177.292 41.1251Z" fill="#ED1A3B"/>
</svg>
